# Alias OBJ Model File
# Exported from SketchUp, (c) 2000-2012 Trimble Navigation Limited
# File units = inches

mtllib case uta.mtl

g Mesh1 Model

usemtl Metal_Aluminum_Anodized
v 122.031 116.142 -1.95788
vt -63.741 66.6898
vn 0.703289 -4.33494e-29 0.710904
v 120.052 118.11 -0
vt -63.6895 66.6534
v 120.052 0 -0
vt -63.6895 68.8406
v 122.031 1.9685 -1.95788
vt -63.741 68.8041
f 1/1/1 2/2/1 3/3/1 4/4/1 

v 122.646 116.142 -116.129
vt -92.2577 47.1568
vn 0.707097 0.707107 0.00380745
v 120.688 118.11 -118.109
vt -92.2942 47.1053
v 120.677 118.11 -116.14
vt -92.2577 47.1053
vt -90.107 47.1053
vt -90.1434 47.1568
f 5/5/2 6/6/2 7/7/2 2/8/2 1/9/2 

vt -68.1971 74.9248
vn 0.710904 -5.46237e-33 -0.703289
v 122.646 1.9685 -116.129
vt -68.1971 72.8104
v 120.688 0 -118.109
vt -68.1456 72.774
vt -68.1456 74.9612
f 5/10/3 8/11/3 9/12/3 6/13/3 

usemtl Color_009
vt 116.788 116.142
vn 0.999986 -3.95432e-20 0.00538455
v 122.635 114.173 -114.161
vt 114.82 114.173
vt 116.788 1.9685
f 5/14/4 10/15/4 8/16/4

v 122.042 114.173 -3.92635
vt 4.58343 114.173
f 5/14/4 11/17/4 10/15/4

vt 2.61493 116.142
f 1/18/4 11/17/4 5/14/4

v 122.042 3.93701 -3.92635
vt 4.58343 3.93701
f 11/17/4 1/18/4 12/19/4

vt 2.61493 1.9685
f 4/20/4 12/19/4 1/18/4

f 12/19/4 4/20/4 8/16/4

usemtl Metal_Aluminum_Anodized
vt -90.1434 48.6519
vn 0.707097 -0.707107 0.00380745
vt -90.107 48.7034
v 120.677 0 -116.14
vt -92.2577 48.7034
vt -92.2942 48.7034
vt -92.2577 48.6519
f 4/21/5 3/22/5 13/23/5 9/24/5 8/25/5 

vt -90.107 0.692695
vn 0 -1 -0
vt -92.2942 0.692695
vt -92.2577 0.692695
f 3/26/6 9/27/6 13/28/6

v 118.698 0 -114.182
vt -92.2213 0.729148
f 14/29/6 9/27/6 3/26/6

v 4.53052 0 -114.797
vt -92.2213 2.84339
f 15/30/6 9/27/6 14/29/6

v 2.58325 0 -118.744
vt -92.2942 2.87985
f 15/30/6 16/31/6 9/27/6

v 3.93695 0 -4.5623
vt -90.1799 2.84339
f 16/31/6 15/30/6 17/32/6

usemtl FrontColor
v 118.105 0 -3.94755
vt -118.105 3.94755
vt -3.93695 4.5623
vt -4.53052 114.797
vt -118.698 114.182
f 18/33/6 17/34/6 15/35/6 14/36/6 

usemtl Metal_Aluminum_Anodized
vt -0.729148 68.8406
vn 0.00538455 -9.05825e-14 -0.999986
vt -2.84339 68.8406
v 3.93695 3.93701 -4.5623
vt -2.84339 68.7677
v 78.739 3.93701 -4.15952
vt -1.45815 68.7677
v 79.0933 3.93701 -4.15761
vt -1.45159 68.7677
v 118.105 3.93701 -3.94755
vt -0.729148 68.7677
f 18/37/7 17/38/7 19/39/7 20/40/7 21/41/7 22/42/7 

vt -90.1799 0.729148
f 3/26/6 17/32/6 18/43/6

v 1.94728 0 -0.63595
vt -90.107 2.87985
f 23/44/6 17/32/6 3/26/6

v 2.57265 0 -116.776
vt -92.2577 2.87985
f 17/32/6 23/44/6 24/45/6

f 17/32/6 24/45/6 16/31/6

vt 6.26546 72.774
vn -0.00538455 0 0.999986
v 118.083 3.93701 -0.0105995
vt 6.229 72.8469
vt 4.0783 72.774
f 3/46/8 25/47/8 23/48/8

vt 6.26546 74.9612
f 25/47/8 3/46/8 2/49/8

v 118.083 3.95669 -0.0105995
vt 6.229 72.8473
f 25/47/8 2/49/8 26/50/8

v 118.083 114.173 -0.0105995
vt 6.229 74.8883
f 26/50/8 2/49/8 27/51/8

v 118.083 114.193 -0.0105995
vt 6.229 74.8887
f 27/51/8 2/49/8 28/52/8

v 79.0721 114.193 -0.220661
vt 5.50656 74.8887
f 28/52/8 2/49/8 29/53/8

v 1.94728 118.11 -0.63595
vt 4.0783 74.9612
f 30/54/8 29/53/8 2/49/8

v 3.91575 114.173 -0.62535
vt 4.11476 74.8883
f 30/54/8 31/55/8 29/53/8

v 3.91575 4.12613 -0.62535
vt 4.11476 72.8504
f 30/54/8 32/56/8 31/55/8

v 3.91575 3.93701 -0.62535
vt 4.11476 72.8469
f 30/54/8 33/57/8 32/56/8

f 23/48/8 33/57/8 30/54/8

v 79.0721 3.93701 -0.220661
vt 5.50656 72.8469
f 33/57/8 23/48/8 34/58/8

f 34/58/8 23/48/8 25/47/8

usemtl FrontColor
vt 79.0933 4.15761
vn 2.60357e-14 1 1.15648e-13
vt 78.739 4.15952
vt 3.93695 4.5623
vt 3.91575 0.62535
v 78.7178 3.93701 -0.222569
vt 78.7178 0.222569
vt 79.0721 0.220661
vt 118.083 0.0105995
vt 118.105 3.94755
f 21/59/9 20/60/9 19/61/9 33/62/9 35/63/9 34/64/9 25/65/9 22/66/9 

vn 7.3893e-12 1 5.77935e-11
v 79.0934 3.93701 -4.17336
vt 79.0934 4.17336
v 78.7391 3.93701 -4.17527
vt 78.7391 4.17527
f 20/60/10 21/59/10 36/67/10 37/68/10 

usemtl Color_000
v 118.698 3.93701 -114.182
vt 118.698 114.182
vn 6.95346e-15 1 4.78381e-15
v 4.53052 3.93701 -114.797
vt 4.53052 114.797
f 38/69/11 39/70/11 19/61/11 20/60/11 37/68/11 36/67/11 21/59/11 22/66/11 

vt 3.91233 3.93701
vn -0.00538455 -4.12537e-15 0.999986
vt 118.082 3.93701
v 118.698 114.173 -114.182
vt 118.082 114.173
v 4.53052 114.173 -114.797
vt 3.91233 114.173
f 39/71/12 38/72/12 40/73/12 41/74/12 

usemtl Metal_Aluminum_Anodized
v 118.719 3.93701 -118.119
vt 92.2942 0.729148
vn 0 1 -0
v 4.55172 3.93701 -118.734
vt 92.2942 2.84339
vt 92.2213 2.84339
vt 92.2213 0.729148
f 42/75/13 43/76/13 39/77/13 38/78/13 

vn 0.00538455 0 -0.999986
vt -0.692695 68.8406
f 42/42/14 9/79/14 43/39/14

vt -0.692695 66.6534
f 9/79/14 42/42/14 6/80/14

v 118.719 114.173 -118.119
vt -0.729148 66.7263
f 6/80/14 42/42/14 44/81/14

usemtl FrontColor
vt -3.91233 3.93701
v 4.55172 114.173 -118.734
vt -3.91233 114.173
vt -118.082 114.173
vt -118.082 3.93701
f 43/82/14 45/83/14 44/84/14 42/85/14 

usemtl Metal_Aluminum_Anodized
v 2.58325 118.11 -118.744
vt -2.87985 66.6534
vt -2.84339 66.7263
f 43/39/14 46/86/14 45/87/14

vt -2.87985 68.8406
f 43/39/14 16/88/14 46/86/14

f 16/88/14 43/39/14 9/79/14

f 45/87/14 46/86/14 44/81/14

f 6/80/14 44/81/14 46/86/14

v 3.84633 118.11 -115.285
vt -92.2302 2.85611
vn -4.28566e-17 -1 7.95905e-15
f 47/89/15 46/31/15 6/27/15

v 3.39182 118.11 -4.75527
vt -90.1834 2.85351
f 46/31/15 47/89/15 48/90/15

usemtl FrontColor
v 3.93797 118.11 -4.75142
vt -3.93797 4.75142
vn 3.84071e-12 -1 -1.89044e-12
vt -3.39182 4.75527
vt -3.84633 115.285
v 118.401 118.11 -114.477
vt -118.401 114.477
v 118.4 118.11 -114.184
vt -118.4 114.184
v 4.53052 118.11 -114.797
f 49/91/16 48/92/16 47/93/16 50/94/16 51/95/16 52/35/16 

usemtl Metal_Aluminum_Anodized
vt -90.1834 2.84339
v 3.93695 118.11 -4.5623
f 49/96/15 53/32/15 48/90/15

vt -90.1834 66.6534
vn 0.999986 3.26736e-14 0.00538455
vt -90.1799 66.6534
v 3.93695 114.173 -4.5623
vt -90.1799 66.7263
vt -92.2213 66.7263
vt -92.2213 66.6534
f 49/97/17 53/98/17 54/99/17 41/100/17 52/101/17 

v 118.105 118.11 -3.94755
vt -0.729149 66.6534
vn 0.00538601 4.7478e-05 -0.999985
v 118.105 114.193 -3.94755
vt -0.729149 66.7259
v 79.0933 114.193 -4.15761
vt -1.45159 66.7259
v 79.0933 114.173 -4.15761
vt -1.45159 66.7263
v 78.739 114.173 -4.15952
vt -1.45815 66.7263
vt -2.84339 66.6534
v 117.437 118.11 -3.95114
vt -0.741509 66.6534
v 117.947 118.11 -3.94755
vt -0.73207 66.6534
f 55/102/18 56/103/18 57/104/18 58/105/18 59/106/18 54/87/18 53/107/18 60/108/18 61/109/18 

vt 90.1799 66.6534
vn -0.999986 1.69311e-14 -0.00538455
v 118.698 118.11 -114.182
vt 92.2213 66.6534
vt 92.2213 66.7263
v 118.105 114.173 -3.94755
vt 90.1799 66.7263
vt 90.1799 66.7259
f 55/110/19 62/111/19 40/112/19 63/113/19 56/114/19 

f 2/26/15 55/43/15 62/29/15

vt -90.1798 0.732069
f 2/26/15 61/115/15 55/43/15

vt -90.1799 0.741508
f 2/26/15 60/116/15 61/115/15

f 2/26/15 53/32/15 60/116/15

f 30/44/15 53/32/15 2/26/15

f 53/32/15 30/44/15 48/90/15

v 2.57265 118.11 -116.776
f 48/90/15 30/44/15 64/45/15

f 48/90/15 64/45/15 46/31/15

usemtl FrontColor
vt 117.947 3.94755
vn -2.16816e-12 1 1.65234e-12
vt 118.4 114.184
vt 3.93797 4.75142
vt 117.437 3.95114
f 61/117/20 51/118/20 52/70/20 49/119/20 60/120/20 

usemtl Metal_Aluminum_Anodized
f 62/29/15 6/27/15 2/26/15

vt -92.2267 0.734674
f 50/121/15 6/27/15 62/29/15

f 47/89/15 6/27/15 50/121/15

vt -92.2213 0.734667
f 62/29/15 51/122/15 50/121/15

f 2/26/15 6/27/15 7/28/15

vt -90.1799 -9.32587e-15
vn -8.88496e-17 -1 1.65006e-14
vt -90.1799 0.0729076
vt -92.2213 0.0729076
vt -92.2213 -5.32907e-15
f 11/123/21 63/124/21 40/125/21 10/126/21 

vt -5.84355e-06 68.7677
vn 0.00540711 8.05102e-07 -0.999985
vt -0.0729134 68.7677
v 118.105 3.95669 -3.94755
vt -0.0729134 68.7673
v 118.105 3.9582 -3.94799
vt -0.0729134 66.7263
vt -5.84355e-06 66.7263
f 12/127/22 22/128/22 65/129/22 66/129/22 63/130/22 11/131/22 

v 122.635 3.93701 -114.161
vt 92.2213 -2.6295e-11
vn -1.98044e-13 1 8.36154e-15
vt 92.2213 0.0729076
vt 90.1799 0.0729076
vt 90.1799 -2.62985e-11
v 122.042 3.93701 -3.94755
vt 90.1803 2.11335e-06
f 67/132/23 38/133/23 22/134/23 12/135/23 68/136/23 

vt 92.2213 68.8406
vn -0.999986 1.27887e-08 -0.00538455
vt 90.1799 68.8406
vt 90.1799 68.7677
vt 92.2213 68.7677
v 118.698 3.93541 -114.182
f 14/137/24 18/138/24 22/139/24 38/140/24 69/140/24 

f 3/26/6 18/43/6 14/29/6

vt 2.84339 68.8406
vn -0.00538464 -2.42584e-06 0.999986
vt 0.729149 68.8406
vt 0.729149 68.7677
vt 2.84339 68.7677
f 15/141/25 14/142/25 69/143/25 38/143/25 39/144/25 

usemtl Color_009
vt 4.60463 3.93701
f 12/19/4 8/16/4 68/145/4

vt 114.82 3.93701
f 68/145/4 8/16/4 67/146/4

f 67/146/4 8/16/4 10/15/4

usemtl Color_000
vt 0.646411 3.95669
vn 0.999986 -6.5046e-09 0.00538443
vt 4.58342 3.95669
vt 4.58386 3.9582
vt 4.58342 114.173
vt 4.58342 114.193
vt 0.646411 114.193
vt 0.646411 114.173
f 26/147/26 65/148/26 66/149/26 63/150/26 56/151/26 28/152/26 27/153/26 

vt -118.082 114.193
vn 0.00538455 2.07783e-10 -0.999986
vt -79.0698 114.173
vt -79.0698 114.193
f 56/154/27 63/84/27 58/155/27 57/156/27 

f 29/64/13 28/65/13 56/66/13 57/59/13 

usemtl Metal_Aluminum_Anodized
vt 0.734431 66.7263
vn -0.00538455 2.31472e-11 0.999986
vt 0.734431 66.7259
vt 1.45687 66.7259
v 79.0721 114.173 -0.220661
vt 1.45687 66.7263
f 27/157/28 28/158/28 29/159/28 70/160/28 

v 78.7178 114.173 -0.222569
vt 5.5 74.8883
vt 5.50656 74.8883
f 29/53/8 71/161/8 70/162/8

f 71/161/8 29/53/8 31/55/8

vt -90.107 1.45815
vn -2.48779e-15 -1 4.62017e-13
vt -90.107 2.84339
vt -90.1799 1.45815
f 71/163/29 31/164/29 54/32/29 59/165/29 

vn 0.999986 -1.21691e-16 0.00538455
f 32/97/30 33/98/30 19/99/30 54/100/30 31/101/30 

vn -0.00538455 -1.40391e-14 0.999986
v 0 114.173 -4.5835
vt 4.04185 74.8883
v 1.13687e-11 114.059 -4.5835
vt 4.04185 74.8862
v 0 3.93701 -4.5835
vt 4.04185 72.8469
f 19/57/31 54/55/31 72/166/31 73/167/31 74/168/31 

vt -92.2213 -4.11476
vt -90.1799 -4.11476
v 0.593573 114.173 -114.818
vt -90.1799 -4.04185
vt -92.2213 -4.04185
f 54/169/13 41/170/13 75/171/13 72/172/13 

vn -0.00538455 -6.38179e-17 0.999986
v 0.593573 114.059 -114.818
v 0.593573 3.93701 -114.818
f 39/57/32 41/55/32 75/166/32 76/167/32 77/168/32 

f 19/169/13 39/170/13 77/171/13 74/172/13 

vt -92.2942 2.84339
vt -92.2942 0.729148
f 45/173/6 44/174/6 40/29/6 41/30/6 

vt 5.5 72.8469
f 33/57/8 34/58/8 35/175/8

vt 0.943788 68.7677
vn -0.00538455 1.15535e-10 0.999986
vt 0.943788 68.7673
v 79.0721 3.95669 -0.220661
vt 1.66623 68.7673
vt 1.66623 68.7677
f 25/176/33 26/177/33 78/178/33 34/179/33 

g Mesh2 Model

vt -90.1799 -3.9414e-06
vn 0.000114572 -5.23129e-07 -1
v 122.635 114.152 -114.182
vt -90.1799 0.0729036
v 122.042 3.91741 -114.182
vt -92.2213 0.0729036
vt -92.2213 0.0109835
v 118.105 3.9386 -114.182
vt -92.2213 -3.9414e-06
f 40/180/34 79/181/34 80/182/34 69/183/34 81/184/34 

g Mesh3 Model

v 118.698 114.193 -3.94799
v 122.635 114.172 -3.94755
v 118.698 3.955 -3.94796
f 82/180/34 83/181/34 68/182/34 84/183/34 66/184/34 

